<svg id="eLPYJIu9BAz1"
     xmlns="http://www.w3.org/2000/svg"
     xmlns:xlink="http://www.w3.org/1999/xlink"
     viewBox="0 0 640 480"
     shape-rendering="geometricPrecision"
     text-rendering="geometricPrecision">
    <ellipse rx="30" ry="30"
             transform="translate(252.431201 247.5688)"
             fill="#1d5ee1"
             stroke-width="0"/>
    <path d="M197.4312,247.5688c0-26.31814,20.33369-47.8871,46.14804-49.85383l-6.11139,11.10459c-17.27086,4.42767-30.03665,20.09765-30.03665,38.74924c0,22.09139,17.90861,40,40,40v10c-27.61424,0-50-22.38576-50-50Z"
          fill="#e1a01d"
          stroke-width="0"/>
    <path d="M175.67279,247.5688c0-41.25567,33.57864-74.7,75-74.7c3.5292,0,7.00147.24279,10.40088.71251l-5.05732,9.20225c-1.76233-.14225-3.54444-.21476-5.34356-.21476-36.0421,0-65.26,29.10149-65.26,65s29.2179,65,65.26,65c10.02577,0,19.52349-2.2518,28.01117-6.27532l10.45623,5.41475c-11.24729,6.70608-24.40541,10.56058-38.46741,10.56058-41.42136,0-75-33.44433-75-74.7l.00001-.00001Z"
          fill="#e1a01d"
          stroke-width="0"/>
</svg>
