<svg id="et8T1cb27WH1" xmlns="http://www.w3.org/2000/svg" xmlns:xlink="http://www.w3.org/1999/xlink" viewBox="0 0 640 480" shape-rendering="geometricPrecision" text-rendering="geometricPrecision"><g transform="matrix(2 0 0 2-174.734091-252.527931)"><ellipse rx="30" ry="30" transform="translate(252.4312 247.641885)" fill="#1d5ee1" stroke-width="0"/><path d="M197.4312,247.5688c0-26.31814,20.33369-47.8871,46.14804-49.85383l-6.11139,11.10459c-17.27086,4.42767-30.03665,20.09765-30.03665,38.74924c0,22.09139,17.90861,40,40,40v10c-27.61424,0-50-22.38576-50-50Z" fill="#e1a01d" stroke-width="0"/><path d="M175.67279,247.5688c0-41.25567,33.57864-74.7,75-74.7c3.5292,0,7.00147.24279,10.40088.71251l-5.05732,9.20225c-1.76233-.14225-3.54444-.21476-5.34356-.21476-36.0421,0-65.26,29.10149-65.26,65s29.2179,65,65.26,65c16.0335,0,30.71652-5.75906,42.07763-15.31361l9.45762,4.58552c-13.43788,12.66279-31.57608,20.4281-51.53525,20.4281-41.42136,0-75-33.44433-75-74.7v-.00001Z" transform="matrix(.677234-.735768 0.735768 0.677234-100.676916 265.710703)" fill="#e1a01d" stroke-width="0"/><path d="M175.67279,247.5688c0-41.25567,33.57864-74.7,75-74.7c3.5292,0,7.00147.24279,10.40088.71251l-5.05732,9.20225c-1.76233-.14225-3.54444-.21476-5.34356-.21476-36.0421,0-65.26,29.10149-65.26,65s29.2179,65,65.26,65c16.0335,0,30.71652-5.75906,42.07763-15.31361l9.45762,4.58552c-13.43788,12.66279-31.57608,20.4281-51.53525,20.4281-41.42136,0-75-33.44433-75-74.7v-.00001Z" transform="matrix(1.459095 0.347912-.347912 1.459095-19.670965-201.815271)" fill="#e1a01d" stroke-width="0"/></g></svg>
